<svg xmlns="http://www.w3.org/2000/svg" xmlns:xlink="http://www.w3.org/1999/xlink"><symbol id="close" viewBox="0 0 37 37">
<path d="M35.56 0.660034L18.76 17.52L1.90001 0.660034L0.76001 1.80003L17.56 18.66L0.76001 35.52L1.90001 36.66L18.76 19.8L35.56 36.66L36.76 35.52L19.9 18.66L36.76 1.80003L35.56 0.660034Z" fill="#010101"/>
</symbol><symbol id="facebook" viewBox="0 0 15 25">
<path d="M9.375 9.375H14.0625V14.0625H9.375V25H4.6875V14.0625H0V9.375H4.6875V7.41406C4.6875 5.55625 5.27188 3.20937 6.43438 1.92656C7.59688 0.640625 9.04844 0 10.7875 0H14.0625V4.6875H10.7812C10.0031 4.6875 9.375 5.31563 9.375 6.09219V9.375Z" fill="black"/>
</symbol><symbol id="icon-fb" viewBox="56.519 49.996 14.962 27.718"><path d="M68.181 55.188c1.026.029 1.993 0 2.681-.3.391-.818.556-1.854.619-2.989-.19-.015-.062-.337-.207-.399-.029-.202-.278-.195-.309-.398-.277-.165-.457-.422-.723-.598-.727-.162-1.44-.335-2.164-.499-.849.044-1.895-.103-2.58.1-2.619-.04-3.997 1.12-5.259 2.392-.023.078-.003.197-.105.199-.574 1.587-.125 3.621-.204 5.581.099.436.107.958.204 1.395-.998.296-2.212.387-3.402.499-.317.324-.178 1.089-.206 1.693.085.583.278 1.06.413 1.595.211.193.596.396.825.498.065.029.071.082.103.1.506.268 1.451.008 2.268.1-.136 1.978.256 3.915 0 5.68.007.327.295.382.208.798-.001.963-.067 1.99.208 2.69-.287.455-.497.982-.415 1.794.122.016.114.157.105.299-.075.47.643.175.515.698.162.456-.428.184-.413.498v.896c.53.285 1.462.182 2.268.199.908-.419 2.188-.479 2.785-1.196.459.235.916-.014 1.238-.199-.018-.315.273-.333.205-.698-.004-.328-.173-.496-.103-.896v-2.89c-.206-2.293-.048-4.938-.309-7.176.888-.105 1.917-.075 2.578-.398.357-.451.377-1.23.516-1.895.177-.226.221-.583.206-.996.19-.213.068-.729.104-1.096-.141-.595-.168-1.3-.825-1.39-.884-.235-2.043.595-2.991.299.049-1.134-.293-2.342 0-3.388.746-.181 1.446-.4 2.166-.602zm-3.818 4.783c.117.254.254.486.414.698.079.022.203.003.205.101a10.319 10.319 0 0 0 3.096-.299c0 .998-.271 1.733-.518 2.492-.662.045-1.467.3-1.958.198-.276.165-.372.506-.62.698-.049.441.142.495 0 .797-.201.137-.055.611-.205.796v1.496c.085.281-.146.258-.104.497v3.488c-.085.281.146.258.104.498v2.989c.063.271-.132.791.103.896-.07.364-.412-.021-.824.1-.528.122-.926.369-1.548.4.117-.353.32-.622.311-1.097.049-.381-.365-.312-.516-.49.193-.644.562-1.117.722-1.793.197-.515.714-1.298.31-1.794-.522-.105-.521.293-.826.398-.022.077-.002.196-.103.199-.023.077-.003.196-.103.199.01.12-.151.062 0 0 .022-.078.002-.197.103-.199.023-.077.002-.197.103-.199v-.299c.368-.575.67-1.214.826-1.993.191-.28.283-.656.412-.997.156-.262.34-.869.104-1.195-.517.033-.796.295-.93.697-.32-.189.161-.434.104-.697.138-.231.169-.566.309-.797.202-.413.564-1.304 0-1.596-.438-.023-.612.207-.723.498-.214.191-.43.383-.516.698-.373-.07-.143-.727-.206-1.097-.067-.52.122-.899 0-1.195-.56-.799-2.026-.105-3.197-.299-.108-.307-.222-.984-.104-1.195 1.045-.088 2.479.201 3.197-.199.024-.078.003-.197.104-.199.094-.723-.271-1-.515-1.396.232-.806.04-2.02.104-2.989.233-.141.328-.414.515-.598.112-.955.673-1.476.722-2.49-.273.001-.607-.055-.619.199-.302-.114-.382.479-.515.199-.112-.541.246-.626.309-.997.599-.418 1.212-.82 1.856-1.195 1.741-.244 4.648-.449 6.086.198.051.616-.287.854-.207 1.496h-1.546c-1.092.24-1.987.672-2.991.997-.24.066-.276.331-.516.398-.036.396-.225.646-.311.996-.079 1.431.133 2.589.102 3.978z"/></symbol><symbol id="instagram" viewBox="0 0 25 25">
<path fill-rule="evenodd" clip-rule="evenodd" d="M20.6725 5.82754C20.6725 6.65605 20.0008 7.32754 19.1725 7.32754C18.3441 7.32754 17.6725 6.65605 17.6725 5.82754C17.6725 4.99902 18.3441 4.32754 19.1725 4.32754C20.001 4.32754 20.6725 4.99902 20.6725 5.82754ZM12.5 16.6666C10.1988 16.6666 8.3334 14.8012 8.3334 12.5C8.3334 10.1988 10.1988 8.3334 12.5 8.3334C14.8012 8.3334 16.6666 10.1988 16.6666 12.5C16.6666 14.8012 14.8012 16.6666 12.5 16.6666ZM12.5 6.08105C8.95488 6.08105 6.08105 8.95488 6.08105 12.5C6.08105 16.0451 8.95488 18.9189 12.5 18.9189C16.0451 18.9189 18.9189 16.0451 18.9189 12.5C18.9189 8.95488 16.0451 6.08105 12.5 6.08105ZM12.5 2.25234C15.8377 2.25234 16.233 2.26504 17.551 2.3252C18.7697 2.38086 19.4316 2.58438 19.8721 2.75566C20.4555 2.98242 20.8719 3.25332 21.3094 3.69082C21.7469 4.12812 22.0178 4.54453 22.2445 5.12813C22.4156 5.56855 22.6193 6.23047 22.675 7.44922C22.7352 8.76738 22.7479 9.16269 22.7479 12.5004C22.7479 15.8381 22.7352 16.2334 22.675 17.5514C22.6193 18.7701 22.4158 19.432 22.2445 19.8725C22.0178 20.4559 21.7469 20.8723 21.3094 21.3098C20.8721 21.7473 20.4557 22.0182 19.8721 22.2449C19.4316 22.416 18.7697 22.6197 17.551 22.6754C16.233 22.7355 15.8377 22.7482 12.5 22.7482C9.16211 22.7482 8.7668 22.7355 7.44883 22.6754C6.23008 22.6197 5.56816 22.4162 5.12773 22.2449C4.54434 22.0182 4.12793 21.7473 3.69043 21.3098C3.25313 20.8725 2.98203 20.4561 2.75527 19.8725C2.58418 19.432 2.38047 18.7701 2.3248 17.5514C2.26465 16.2332 2.25195 15.8379 2.25195 12.5004C2.25195 9.16269 2.26465 8.76738 2.3248 7.44922C2.38047 6.23047 2.58398 5.56855 2.75527 5.12813C2.98203 4.54473 3.25293 4.12832 3.69043 3.69082C4.12773 3.25332 4.54414 2.98242 5.12773 2.75566C5.56816 2.58457 6.23008 2.38086 7.44883 2.3252C8.76699 2.26504 9.1623 2.25234 12.5 2.25234ZM12.5 0C9.10527 0 8.67949 0.0144531 7.34629 0.0751953C6.01582 0.135937 5.10703 0.347266 4.31211 0.65625C3.49004 0.975586 2.79297 1.40312 2.09805 2.09805C1.40312 2.79297 0.975586 3.49004 0.65625 4.31211C0.347266 5.10723 0.135937 6.01582 0.0751953 7.34629C0.0144531 8.67949 0 9.10527 0 12.5C0 15.8947 0.0144531 16.3205 0.0751953 17.6537C0.135937 18.9842 0.347266 19.8928 0.65625 20.6879C0.975586 21.51 1.40312 22.207 2.09805 22.902C2.79297 23.5969 3.49004 24.0242 4.31211 24.3438C5.10723 24.6527 6.01582 24.8641 7.34629 24.9248C8.67949 24.9855 9.10527 25 12.5 25C15.8947 25 16.3205 24.9855 17.6537 24.9248C18.9842 24.8641 19.8928 24.6527 20.6879 24.3438C21.51 24.0242 22.207 23.5969 22.902 22.902C23.5969 22.207 24.0242 21.51 24.3438 20.6879C24.6527 19.8928 24.8641 18.9842 24.9248 17.6537C24.9855 16.3205 25 15.8947 25 12.5C25 9.10527 24.9855 8.67949 24.9248 7.34629C24.8641 6.01582 24.6527 5.10723 24.3438 4.31211C24.0242 3.49004 23.5969 2.79297 22.902 2.09805C22.207 1.40312 21.51 0.975781 20.6879 0.65625C19.8928 0.347266 18.9842 0.135937 17.6537 0.0751953C16.3205 0.0144531 15.8947 0 12.5 0Z" fill="black"/>
</symbol><symbol id="twitter" viewBox="0 0 25 21">
<path d="M25 2.40495C24.081 2.81347 23.0919 3.08903 22.0541 3.21235C23.1137 2.578 23.9262 1.57319 24.3093 0.37452C23.3182 0.96269 22.221 1.38948 21.0523 1.61988C20.117 0.623185 18.7839 0 17.3086 0C14.4764 0 12.18 2.29635 12.18 5.1291C12.18 5.53052 12.2252 5.92179 12.313 6.29783C8.05016 6.08367 4.27045 4.04208 1.74066 0.938838C1.29915 1.696 1.04642 2.57698 1.04642 3.51785C1.04642 5.29708 1.95177 6.86722 3.32806 7.78678C2.48767 7.75988 1.69651 7.52898 1.00481 7.14481C1.0043 7.16613 1.0043 7.18795 1.0043 7.20977C1.0043 9.6944 2.77236 11.7669 5.11895 12.2389C4.68861 12.3556 4.23543 12.4185 3.76753 12.4185C3.43666 12.4185 3.11542 12.3866 2.80231 12.3262C3.45543 14.3637 5.34935 15.8471 7.59343 15.8882C5.83805 17.264 3.62696 18.0841 1.22354 18.0841C0.809939 18.0841 0.401417 18.0597 0 18.012C2.27047 19.468 4.9662 20.3165 7.86239 20.3165C17.297 20.3165 22.4555 12.5013 22.4555 5.72336C22.4555 5.50109 22.4509 5.27932 22.4413 5.05907C23.443 4.33743 24.3129 3.43361 25 2.40495Z" fill="black"/>
</symbol></svg>